<mxfile host="app.diagrams.net" modified="2021-06-27T09:13:26.886Z" agent="5.0 (Windows NT 10.0; Win64; x64) AppleWebKit/537.36 (KHTML, like Gecko) Chrome/91.0.4472.124 Safari/537.36" etag="_kspzuPap4NPPtDusmhN" version="14.7.7" type="github">
  <diagram id="R2lEEEUBdFMjLlhIrx00" name="Page-1">
    <mxGraphModel dx="2272" dy="762" grid="1" gridSize="10" guides="1" tooltips="1" connect="1" arrows="1" fold="1" page="1" pageScale="1" pageWidth="850" pageHeight="1100" math="0" shadow="0" extFonts="Permanent Marker^https://fonts.googleapis.com/css?family=Permanent+Marker">
      <root>
        <mxCell id="0" />
        <mxCell id="1" parent="0" />
        <mxCell id="LeojJ_W3fskSIA1dzit3-1" value="Filme" style="whiteSpace=wrap;html=1;align=center;" parent="1" vertex="1">
          <mxGeometry x="420" y="260" width="100" height="40" as="geometry" />
        </mxCell>
        <mxCell id="LeojJ_W3fskSIA1dzit3-2" value="Estúdio de produção" style="whiteSpace=wrap;html=1;align=center;" parent="1" vertex="1">
          <mxGeometry x="420" y="820" width="100" height="40" as="geometry" />
        </mxCell>
        <mxCell id="LeojJ_W3fskSIA1dzit3-3" value="Realizador" style="whiteSpace=wrap;html=1;align=center;" parent="1" vertex="1">
          <mxGeometry x="420" y="600" width="100" height="40" as="geometry" />
        </mxCell>
        <mxCell id="LeojJ_W3fskSIA1dzit3-4" value="Ator" style="whiteSpace=wrap;html=1;align=center;" parent="1" vertex="1">
          <mxGeometry x="900" y="260" width="100" height="40" as="geometry" />
        </mxCell>
        <mxCell id="LeojJ_W3fskSIA1dzit3-5" value="" style="endArrow=none;html=1;exitX=0.33;exitY=0.95;exitDx=0;exitDy=0;startArrow=none;exitPerimeter=0;" parent="1" source="LeojJ_W3fskSIA1dzit3-20" edge="1">
          <mxGeometry width="50" height="50" relative="1" as="geometry">
            <mxPoint x="400" y="410" as="sourcePoint" />
            <mxPoint x="480" y="260" as="targetPoint" />
          </mxGeometry>
        </mxCell>
        <mxCell id="LeojJ_W3fskSIA1dzit3-8" value="" style="endArrow=none;html=1;" parent="1" source="LeojJ_W3fskSIA1dzit3-12" edge="1">
          <mxGeometry width="50" height="50" relative="1" as="geometry">
            <mxPoint x="400" y="410" as="sourcePoint" />
            <mxPoint x="453" y="260" as="targetPoint" />
          </mxGeometry>
        </mxCell>
        <mxCell id="LeojJ_W3fskSIA1dzit3-9" value="" style="endArrow=none;html=1;entryX=0;entryY=0.25;entryDx=0;entryDy=0;exitX=1;exitY=1;exitDx=0;exitDy=0;" parent="1" source="LeojJ_W3fskSIA1dzit3-13" target="LeojJ_W3fskSIA1dzit3-1" edge="1">
          <mxGeometry width="50" height="50" relative="1" as="geometry">
            <mxPoint x="350" y="100" as="sourcePoint" />
            <mxPoint x="450" y="360" as="targetPoint" />
          </mxGeometry>
        </mxCell>
        <mxCell id="LeojJ_W3fskSIA1dzit3-10" value="" style="endArrow=none;html=1;entryX=0.25;entryY=0;entryDx=0;entryDy=0;exitX=0.622;exitY=1;exitDx=0;exitDy=0;exitPerimeter=0;" parent="1" source="LeojJ_W3fskSIA1dzit3-14" target="LeojJ_W3fskSIA1dzit3-1" edge="1">
          <mxGeometry width="50" height="50" relative="1" as="geometry">
            <mxPoint x="374" y="150" as="sourcePoint" />
            <mxPoint x="330" y="260" as="targetPoint" />
          </mxGeometry>
        </mxCell>
        <mxCell id="LeojJ_W3fskSIA1dzit3-12" value="País em que foi produzido" style="ellipse;whiteSpace=wrap;html=1;align=center;" parent="1" vertex="1">
          <mxGeometry x="240" y="112.5" width="100" height="40" as="geometry" />
        </mxCell>
        <mxCell id="LeojJ_W3fskSIA1dzit3-13" value="Titulo" style="ellipse;whiteSpace=wrap;html=1;align=center;" parent="1" vertex="1">
          <mxGeometry x="180" y="200" width="100" height="40" as="geometry" />
        </mxCell>
        <mxCell id="LeojJ_W3fskSIA1dzit3-14" value="Categoria" style="ellipse;whiteSpace=wrap;html=1;align=center;" parent="1" vertex="1">
          <mxGeometry x="280" y="165" width="90" height="35" as="geometry" />
        </mxCell>
        <mxCell id="LeojJ_W3fskSIA1dzit3-15" value="Data de estreia" style="ellipse;whiteSpace=wrap;html=1;align=center;" parent="1" vertex="1">
          <mxGeometry x="170" y="152.5" width="100" height="40" as="geometry" />
        </mxCell>
        <mxCell id="LeojJ_W3fskSIA1dzit3-16" value="Critico" style="whiteSpace=wrap;html=1;align=center;" parent="1" vertex="1">
          <mxGeometry x="60" y="260" width="100" height="40" as="geometry" />
        </mxCell>
        <mxCell id="LeojJ_W3fskSIA1dzit3-23" value="Avaliação de 0 a 10" style="ellipse;whiteSpace=wrap;html=1;align=center;" parent="1" vertex="1">
          <mxGeometry x="460" y="90" width="100" height="40" as="geometry" />
        </mxCell>
        <mxCell id="LeojJ_W3fskSIA1dzit3-24" value="Avaliação critica por escrito" style="ellipse;whiteSpace=wrap;html=1;align=center;" parent="1" vertex="1">
          <mxGeometry x="340" y="92.5" width="100" height="40" as="geometry" />
        </mxCell>
        <mxCell id="LeojJ_W3fskSIA1dzit3-25" value="" style="endArrow=none;html=1;exitX=0.5;exitY=1;exitDx=0;exitDy=0;entryX=0.39;entryY=0;entryDx=0;entryDy=0;entryPerimeter=0;startArrow=none;" parent="1" source="LeojJ_W3fskSIA1dzit3-19" target="LeojJ_W3fskSIA1dzit3-1" edge="1">
          <mxGeometry width="50" height="50" relative="1" as="geometry">
            <mxPoint x="400" y="390" as="sourcePoint" />
            <mxPoint x="470" y="259" as="targetPoint" />
          </mxGeometry>
        </mxCell>
        <mxCell id="LeojJ_W3fskSIA1dzit3-35" value="" style="endArrow=none;html=1;entryX=0.5;entryY=1;entryDx=0;entryDy=0;exitX=0.5;exitY=0;exitDx=0;exitDy=0;startArrow=none;" parent="1" source="LeojJ_W3fskSIA1dzit3-36" target="LeojJ_W3fskSIA1dzit3-1" edge="1">
          <mxGeometry width="50" height="50" relative="1" as="geometry">
            <mxPoint x="400" y="370" as="sourcePoint" />
            <mxPoint x="450" y="320" as="targetPoint" />
          </mxGeometry>
        </mxCell>
        <mxCell id="LeojJ_W3fskSIA1dzit3-36" value="Realiza" style="shape=rhombus;perimeter=rhombusPerimeter;whiteSpace=wrap;html=1;align=center;" parent="1" vertex="1">
          <mxGeometry x="410" y="410" width="120" height="60" as="geometry" />
        </mxCell>
        <mxCell id="LeojJ_W3fskSIA1dzit3-37" value="" style="endArrow=none;html=1;entryX=0.5;entryY=1;entryDx=0;entryDy=0;exitX=0.5;exitY=0;exitDx=0;exitDy=0;" parent="1" source="LeojJ_W3fskSIA1dzit3-3" target="LeojJ_W3fskSIA1dzit3-36" edge="1">
          <mxGeometry width="50" height="50" relative="1" as="geometry">
            <mxPoint x="410" y="420" as="sourcePoint" />
            <mxPoint x="410" y="300" as="targetPoint" />
          </mxGeometry>
        </mxCell>
        <mxCell id="LeojJ_W3fskSIA1dzit3-38" value="" style="endArrow=none;html=1;entryX=1;entryY=0.5;entryDx=0;entryDy=0;exitX=0;exitY=0.5;exitDx=0;exitDy=0;startArrow=none;" parent="1" source="LeojJ_W3fskSIA1dzit3-39" target="LeojJ_W3fskSIA1dzit3-1" edge="1">
          <mxGeometry width="50" height="50" relative="1" as="geometry">
            <mxPoint x="400" y="370" as="sourcePoint" />
            <mxPoint x="450" y="320" as="targetPoint" />
          </mxGeometry>
        </mxCell>
        <mxCell id="LeojJ_W3fskSIA1dzit3-39" value="Integram" style="shape=rhombus;perimeter=rhombusPerimeter;whiteSpace=wrap;html=1;align=center;" parent="1" vertex="1">
          <mxGeometry x="645" y="250" width="120" height="60" as="geometry" />
        </mxCell>
        <mxCell id="LeojJ_W3fskSIA1dzit3-40" value="" style="endArrow=none;html=1;entryX=1;entryY=0.5;entryDx=0;entryDy=0;exitX=0;exitY=0.5;exitDx=0;exitDy=0;" parent="1" source="LeojJ_W3fskSIA1dzit3-4" target="LeojJ_W3fskSIA1dzit3-39" edge="1">
          <mxGeometry width="50" height="50" relative="1" as="geometry">
            <mxPoint x="680" y="280" as="sourcePoint" />
            <mxPoint x="460" y="280" as="targetPoint" />
          </mxGeometry>
        </mxCell>
        <mxCell id="LeojJ_W3fskSIA1dzit3-42" value="Duração" style="ellipse;whiteSpace=wrap;html=1;align=center;" parent="1" vertex="1">
          <mxGeometry x="480" y="170" width="100" height="40" as="geometry" />
        </mxCell>
        <mxCell id="LeojJ_W3fskSIA1dzit3-43" value="" style="endArrow=none;html=1;entryX=0.85;entryY=0;entryDx=0;entryDy=0;exitX=0.5;exitY=1;exitDx=0;exitDy=0;entryPerimeter=0;" parent="1" source="LeojJ_W3fskSIA1dzit3-42" target="LeojJ_W3fskSIA1dzit3-1" edge="1">
          <mxGeometry width="50" height="50" relative="1" as="geometry">
            <mxPoint x="556" y="230" as="sourcePoint" />
            <mxPoint x="520" y="270" as="targetPoint" />
          </mxGeometry>
        </mxCell>
        <mxCell id="LeojJ_W3fskSIA1dzit3-44" value="" style="endArrow=none;html=1;entryX=0.5;entryY=1;entryDx=0;entryDy=0;exitX=0.5;exitY=0;exitDx=0;exitDy=0;startArrow=none;" parent="1" source="LeojJ_W3fskSIA1dzit3-45" target="LeojJ_W3fskSIA1dzit3-3" edge="1">
          <mxGeometry width="50" height="50" relative="1" as="geometry">
            <mxPoint x="400" y="370" as="sourcePoint" />
            <mxPoint x="450" y="320" as="targetPoint" />
          </mxGeometry>
        </mxCell>
        <mxCell id="LeojJ_W3fskSIA1dzit3-45" value="Contrata" style="shape=rhombus;perimeter=rhombusPerimeter;whiteSpace=wrap;html=1;align=center;" parent="1" vertex="1">
          <mxGeometry x="410" y="700" width="120" height="60" as="geometry" />
        </mxCell>
        <mxCell id="LeojJ_W3fskSIA1dzit3-46" value="" style="endArrow=none;html=1;entryX=0.5;entryY=1;entryDx=0;entryDy=0;exitX=0.5;exitY=0;exitDx=0;exitDy=0;" parent="1" source="LeojJ_W3fskSIA1dzit3-2" target="LeojJ_W3fskSIA1dzit3-45" edge="1">
          <mxGeometry width="50" height="50" relative="1" as="geometry">
            <mxPoint x="370" y="600" as="sourcePoint" />
            <mxPoint x="370" y="480" as="targetPoint" />
          </mxGeometry>
        </mxCell>
        <mxCell id="LeojJ_W3fskSIA1dzit3-50" value="" style="endArrow=none;html=1;entryX=1;entryY=0.75;entryDx=0;entryDy=0;exitX=0;exitY=0.5;exitDx=0;exitDy=0;entryPerimeter=0;" parent="1" source="LeojJ_W3fskSIA1dzit3-57" target="LeojJ_W3fskSIA1dzit3-4" edge="1">
          <mxGeometry width="50" height="50" relative="1" as="geometry">
            <mxPoint x="400" y="370" as="sourcePoint" />
            <mxPoint x="450" y="320" as="targetPoint" />
          </mxGeometry>
        </mxCell>
        <mxCell id="LeojJ_W3fskSIA1dzit3-52" value="" style="endArrow=none;html=1;entryX=1;entryY=0.5;entryDx=0;entryDy=0;exitX=0;exitY=0.5;exitDx=0;exitDy=0;" parent="1" source="LeojJ_W3fskSIA1dzit3-58" target="LeojJ_W3fskSIA1dzit3-4" edge="1">
          <mxGeometry width="50" height="50" relative="1" as="geometry">
            <mxPoint x="400" y="370" as="sourcePoint" />
            <mxPoint x="450" y="320" as="targetPoint" />
          </mxGeometry>
        </mxCell>
        <mxCell id="LeojJ_W3fskSIA1dzit3-55" value="" style="endArrow=none;html=1;entryX=0.75;entryY=0;entryDx=0;entryDy=0;exitX=0.33;exitY=1;exitDx=0;exitDy=0;exitPerimeter=0;" parent="1" source="LeojJ_W3fskSIA1dzit3-61" target="LeojJ_W3fskSIA1dzit3-4" edge="1">
          <mxGeometry width="50" height="50" relative="1" as="geometry">
            <mxPoint x="400" y="370" as="sourcePoint" />
            <mxPoint x="450" y="320" as="targetPoint" />
          </mxGeometry>
        </mxCell>
        <mxCell id="LeojJ_W3fskSIA1dzit3-56" value="" style="endArrow=none;html=1;exitX=0.5;exitY=1;exitDx=0;exitDy=0;" parent="1" source="LeojJ_W3fskSIA1dzit3-62" edge="1">
          <mxGeometry width="50" height="50" relative="1" as="geometry">
            <mxPoint x="670" y="190" as="sourcePoint" />
            <mxPoint x="966" y="260" as="targetPoint" />
          </mxGeometry>
        </mxCell>
        <mxCell id="LeojJ_W3fskSIA1dzit3-57" value="Género" style="ellipse;whiteSpace=wrap;html=1;align=center;" parent="1" vertex="1">
          <mxGeometry x="1065" y="300" width="100" height="40" as="geometry" />
        </mxCell>
        <mxCell id="LeojJ_W3fskSIA1dzit3-58" value="Remuneração por filme" style="ellipse;whiteSpace=wrap;html=1;align=center;" parent="1" vertex="1">
          <mxGeometry x="1160" y="270" width="110" height="50" as="geometry" />
        </mxCell>
        <mxCell id="LeojJ_W3fskSIA1dzit3-61" value="Idade" style="ellipse;whiteSpace=wrap;html=1;align=center;" parent="1" vertex="1">
          <mxGeometry x="1010" y="200" width="100" height="40" as="geometry" />
        </mxCell>
        <mxCell id="LeojJ_W3fskSIA1dzit3-62" value="Nome" style="ellipse;whiteSpace=wrap;html=1;align=center;" parent="1" vertex="1">
          <mxGeometry x="1010" y="140" width="100" height="40" as="geometry" />
        </mxCell>
        <mxCell id="LeojJ_W3fskSIA1dzit3-70" value="" style="endArrow=none;html=1;entryX=0;entryY=0.5;entryDx=0;entryDy=0;startArrow=none;" parent="1" source="LeojJ_W3fskSIA1dzit3-108" target="LeojJ_W3fskSIA1dzit3-1" edge="1">
          <mxGeometry width="50" height="50" relative="1" as="geometry">
            <mxPoint x="160" y="280" as="sourcePoint" />
            <mxPoint x="420" y="300" as="targetPoint" />
          </mxGeometry>
        </mxCell>
        <mxCell id="LeojJ_W3fskSIA1dzit3-78" value="" style="endArrow=none;html=1;entryX=0;entryY=0.5;entryDx=0;entryDy=0;exitX=1;exitY=0.5;exitDx=0;exitDy=0;" parent="1" source="LeojJ_W3fskSIA1dzit3-83" target="LeojJ_W3fskSIA1dzit3-16" edge="1">
          <mxGeometry width="50" height="50" relative="1" as="geometry">
            <mxPoint x="700" y="630" as="sourcePoint" />
            <mxPoint x="410" y="400" as="targetPoint" />
          </mxGeometry>
        </mxCell>
        <mxCell id="LeojJ_W3fskSIA1dzit3-83" value="Idade" style="ellipse;whiteSpace=wrap;html=1;align=center;" parent="1" vertex="1">
          <mxGeometry x="-110" y="255" width="100" height="40" as="geometry" />
        </mxCell>
        <mxCell id="LeojJ_W3fskSIA1dzit3-84" value="Nome" style="ellipse;whiteSpace=wrap;html=1;align=center;" parent="1" vertex="1">
          <mxGeometry x="-50" y="320" width="100" height="40" as="geometry" />
        </mxCell>
        <mxCell id="LeojJ_W3fskSIA1dzit3-93" value="Prémios cinematograficos" style="whiteSpace=wrap;html=1;align=center;" parent="1" vertex="1">
          <mxGeometry x="655" y="420" width="100" height="40" as="geometry" />
        </mxCell>
        <mxCell id="LeojJ_W3fskSIA1dzit3-95" value="" style="endArrow=none;html=1;entryX=0;entryY=1;entryDx=0;entryDy=0;exitX=0.66;exitY=0.05;exitDx=0;exitDy=0;exitPerimeter=0;" parent="1" source="LeojJ_W3fskSIA1dzit3-84" target="LeojJ_W3fskSIA1dzit3-16" edge="1">
          <mxGeometry width="50" height="50" relative="1" as="geometry">
            <mxPoint x="540" y="650" as="sourcePoint" />
            <mxPoint x="590" y="600" as="targetPoint" />
          </mxGeometry>
        </mxCell>
        <mxCell id="LeojJ_W3fskSIA1dzit3-96" style="edgeStyle=orthogonalEdgeStyle;rounded=0;orthogonalLoop=1;jettySize=auto;html=1;exitX=0.5;exitY=1;exitDx=0;exitDy=0;" parent="1" source="LeojJ_W3fskSIA1dzit3-93" target="LeojJ_W3fskSIA1dzit3-93" edge="1">
          <mxGeometry relative="1" as="geometry" />
        </mxCell>
        <mxCell id="LeojJ_W3fskSIA1dzit3-98" value="" style="endArrow=none;html=1;entryX=1;entryY=1;entryDx=0;entryDy=0;exitX=0.317;exitY=0.15;exitDx=0;exitDy=0;startArrow=none;exitPerimeter=0;" parent="1" source="LeojJ_W3fskSIA1dzit3-101" target="LeojJ_W3fskSIA1dzit3-1" edge="1">
          <mxGeometry width="50" height="50" relative="1" as="geometry">
            <mxPoint x="540" y="650" as="sourcePoint" />
            <mxPoint x="590" y="600" as="targetPoint" />
          </mxGeometry>
        </mxCell>
        <mxCell id="LeojJ_W3fskSIA1dzit3-99" value="" style="endArrow=none;html=1;entryX=1;entryY=0.5;entryDx=0;entryDy=0;exitX=0;exitY=0.5;exitDx=0;exitDy=0;" parent="1" source="LeojJ_W3fskSIA1dzit3-93" target="LeojJ_W3fskSIA1dzit3-36" edge="1">
          <mxGeometry width="50" height="50" relative="1" as="geometry">
            <mxPoint x="540" y="650" as="sourcePoint" />
            <mxPoint x="590" y="600" as="targetPoint" />
          </mxGeometry>
        </mxCell>
        <mxCell id="LeojJ_W3fskSIA1dzit3-107" value="" style="endArrow=none;html=1;entryX=1;entryY=1;entryDx=0;entryDy=0;exitX=0;exitY=0;exitDx=0;exitDy=0;" parent="1" source="LeojJ_W3fskSIA1dzit3-111" target="LeojJ_W3fskSIA1dzit3-93" edge="1">
          <mxGeometry width="50" height="50" relative="1" as="geometry">
            <mxPoint x="540" y="650" as="sourcePoint" />
            <mxPoint x="590" y="600" as="targetPoint" />
          </mxGeometry>
        </mxCell>
        <mxCell id="LeojJ_W3fskSIA1dzit3-111" value="&lt;u&gt;Designação&lt;/u&gt;" style="ellipse;whiteSpace=wrap;html=1;align=center;" parent="1" vertex="1">
          <mxGeometry x="770" y="480" width="100" height="40" as="geometry" />
        </mxCell>
        <mxCell id="LeojJ_W3fskSIA1dzit3-112" value="" style="endArrow=none;html=1;exitX=0.5;exitY=0;exitDx=0;exitDy=0;entryX=0.3;entryY=1;entryDx=0;entryDy=0;entryPerimeter=0;" parent="1" source="LeojJ_W3fskSIA1dzit3-115" target="LeojJ_W3fskSIA1dzit3-2" edge="1">
          <mxGeometry width="50" height="50" relative="1" as="geometry">
            <mxPoint x="540" y="750" as="sourcePoint" />
            <mxPoint x="590" y="700" as="targetPoint" />
          </mxGeometry>
        </mxCell>
        <mxCell id="LeojJ_W3fskSIA1dzit3-113" value="" style="endArrow=none;html=1;exitX=0.83;exitY=1;exitDx=0;exitDy=0;exitPerimeter=0;" parent="1" source="LeojJ_W3fskSIA1dzit3-2" target="LeojJ_W3fskSIA1dzit3-114" edge="1">
          <mxGeometry width="50" height="50" relative="1" as="geometry">
            <mxPoint x="540" y="750" as="sourcePoint" />
            <mxPoint x="590" y="700" as="targetPoint" />
          </mxGeometry>
        </mxCell>
        <mxCell id="LeojJ_W3fskSIA1dzit3-114" value="País de origem" style="ellipse;whiteSpace=wrap;html=1;align=center;" parent="1" vertex="1">
          <mxGeometry x="480" y="930" width="100" height="40" as="geometry" />
        </mxCell>
        <mxCell id="LeojJ_W3fskSIA1dzit3-115" value="Dono" style="ellipse;whiteSpace=wrap;html=1;align=center;" parent="1" vertex="1">
          <mxGeometry x="370" y="930" width="100" height="40" as="geometry" />
        </mxCell>
        <mxCell id="LeojJ_W3fskSIA1dzit3-117" value="Orçamento por filme" style="ellipse;whiteSpace=wrap;html=1;align=center;" parent="1" vertex="1">
          <mxGeometry x="570" y="890" width="100" height="40" as="geometry" />
        </mxCell>
        <mxCell id="LeojJ_W3fskSIA1dzit3-118" value="" style="endArrow=none;html=1;exitX=1;exitY=1;exitDx=0;exitDy=0;" parent="1" source="LeojJ_W3fskSIA1dzit3-2" target="LeojJ_W3fskSIA1dzit3-117" edge="1">
          <mxGeometry width="50" height="50" relative="1" as="geometry">
            <mxPoint x="540" y="750" as="sourcePoint" />
            <mxPoint x="590" y="830" as="targetPoint" />
          </mxGeometry>
        </mxCell>
        <mxCell id="LeojJ_W3fskSIA1dzit3-120" value="" style="endArrow=none;html=1;exitX=1;exitY=0.5;exitDx=0;exitDy=0;" parent="1" source="LeojJ_W3fskSIA1dzit3-2" target="LeojJ_W3fskSIA1dzit3-121" edge="1">
          <mxGeometry width="50" height="50" relative="1" as="geometry">
            <mxPoint x="540" y="640" as="sourcePoint" />
            <mxPoint x="590" y="590" as="targetPoint" />
          </mxGeometry>
        </mxCell>
        <mxCell id="LeojJ_W3fskSIA1dzit3-121" value="Nome" style="ellipse;whiteSpace=wrap;html=1;align=center;" parent="1" vertex="1">
          <mxGeometry x="590" y="820" width="100" height="40" as="geometry" />
        </mxCell>
        <mxCell id="LeojJ_W3fskSIA1dzit3-122" value="Filmes produzidos" style="ellipse;whiteSpace=wrap;html=1;align=center;" parent="1" vertex="1">
          <mxGeometry x="290" y="890" width="105" height="40" as="geometry" />
        </mxCell>
        <mxCell id="LeojJ_W3fskSIA1dzit3-123" value="" style="endArrow=none;html=1;entryX=0;entryY=1;entryDx=0;entryDy=0;exitX=1;exitY=0;exitDx=0;exitDy=0;" parent="1" source="LeojJ_W3fskSIA1dzit3-122" target="LeojJ_W3fskSIA1dzit3-2" edge="1">
          <mxGeometry width="50" height="50" relative="1" as="geometry">
            <mxPoint x="540" y="640" as="sourcePoint" />
            <mxPoint x="590" y="590" as="targetPoint" />
          </mxGeometry>
        </mxCell>
        <mxCell id="LeojJ_W3fskSIA1dzit3-125" value="Género" style="ellipse;whiteSpace=wrap;html=1;align=center;" parent="1" vertex="1">
          <mxGeometry x="315" y="670" width="100" height="40" as="geometry" />
        </mxCell>
        <mxCell id="LeojJ_W3fskSIA1dzit3-126" value="Remuneração por filme" style="ellipse;whiteSpace=wrap;html=1;align=center;" parent="1" vertex="1">
          <mxGeometry x="215" y="630" width="110" height="50" as="geometry" />
        </mxCell>
        <mxCell id="LeojJ_W3fskSIA1dzit3-128" value="Idade" style="ellipse;whiteSpace=wrap;html=1;align=center;" parent="1" vertex="1">
          <mxGeometry x="215" y="580" width="100" height="40" as="geometry" />
        </mxCell>
        <mxCell id="LeojJ_W3fskSIA1dzit3-129" value="Nome" style="ellipse;whiteSpace=wrap;html=1;align=center;" parent="1" vertex="1">
          <mxGeometry x="280" y="530" width="100" height="40" as="geometry" />
        </mxCell>
        <mxCell id="LeojJ_W3fskSIA1dzit3-130" value="" style="endArrow=none;html=1;entryX=0.25;entryY=1;entryDx=0;entryDy=0;exitX=0.6;exitY=0.05;exitDx=0;exitDy=0;exitPerimeter=0;" parent="1" source="LeojJ_W3fskSIA1dzit3-125" target="LeojJ_W3fskSIA1dzit3-3" edge="1">
          <mxGeometry width="50" height="50" relative="1" as="geometry">
            <mxPoint x="540" y="630" as="sourcePoint" />
            <mxPoint x="590" y="580" as="targetPoint" />
          </mxGeometry>
        </mxCell>
        <mxCell id="LeojJ_W3fskSIA1dzit3-131" value="" style="endArrow=none;html=1;entryX=0;entryY=0.75;entryDx=0;entryDy=0;exitX=0.96;exitY=0.325;exitDx=0;exitDy=0;exitPerimeter=0;" parent="1" source="LeojJ_W3fskSIA1dzit3-126" target="LeojJ_W3fskSIA1dzit3-3" edge="1">
          <mxGeometry width="50" height="50" relative="1" as="geometry">
            <mxPoint x="340" y="640" as="sourcePoint" />
            <mxPoint x="590" y="580" as="targetPoint" />
          </mxGeometry>
        </mxCell>
        <mxCell id="LeojJ_W3fskSIA1dzit3-133" value="" style="endArrow=none;html=1;entryX=0.96;entryY=0.7;entryDx=0;entryDy=0;exitX=0;exitY=0.25;exitDx=0;exitDy=0;entryPerimeter=0;" parent="1" source="LeojJ_W3fskSIA1dzit3-3" target="LeojJ_W3fskSIA1dzit3-128" edge="1">
          <mxGeometry width="50" height="50" relative="1" as="geometry">
            <mxPoint x="540" y="630" as="sourcePoint" />
            <mxPoint x="590" y="580" as="targetPoint" />
          </mxGeometry>
        </mxCell>
        <mxCell id="LeojJ_W3fskSIA1dzit3-134" value="" style="endArrow=none;html=1;entryX=1;entryY=1;entryDx=0;entryDy=0;exitX=0.13;exitY=0;exitDx=0;exitDy=0;exitPerimeter=0;" parent="1" source="LeojJ_W3fskSIA1dzit3-3" target="LeojJ_W3fskSIA1dzit3-129" edge="1">
          <mxGeometry width="50" height="50" relative="1" as="geometry">
            <mxPoint x="540" y="630" as="sourcePoint" />
            <mxPoint x="590" y="580" as="targetPoint" />
          </mxGeometry>
        </mxCell>
        <mxCell id="LeojJ_W3fskSIA1dzit3-135" value="" style="endArrow=none;html=1;exitX=1;exitY=1;exitDx=0;exitDy=0;" parent="1" source="LeojJ_W3fskSIA1dzit3-15" edge="1">
          <mxGeometry width="50" height="50" relative="1" as="geometry">
            <mxPoint x="260" y="180" as="sourcePoint" />
            <mxPoint x="429" y="260" as="targetPoint" />
          </mxGeometry>
        </mxCell>
        <mxCell id="LeojJ_W3fskSIA1dzit3-108" value="Avaliam" style="shape=rhombus;perimeter=rhombusPerimeter;whiteSpace=wrap;html=1;align=center;" parent="1" vertex="1">
          <mxGeometry x="220" y="250" width="120" height="60" as="geometry" />
        </mxCell>
        <mxCell id="LeojJ_W3fskSIA1dzit3-137" value="" style="endArrow=none;html=1;entryX=0;entryY=0.5;entryDx=0;entryDy=0;" parent="1" target="LeojJ_W3fskSIA1dzit3-108" edge="1">
          <mxGeometry width="50" height="50" relative="1" as="geometry">
            <mxPoint x="160" y="280" as="sourcePoint" />
            <mxPoint x="420" y="280" as="targetPoint" />
          </mxGeometry>
        </mxCell>
        <mxCell id="LeojJ_W3fskSIA1dzit3-138" value="1" style="text;html=1;strokeColor=none;fillColor=none;align=center;verticalAlign=middle;whiteSpace=wrap;rounded=0;" parent="1" vertex="1">
          <mxGeometry x="470" y="520" width="40" height="20" as="geometry" />
        </mxCell>
        <mxCell id="LeojJ_W3fskSIA1dzit3-139" value="M" style="text;html=1;strokeColor=none;fillColor=none;align=center;verticalAlign=middle;whiteSpace=wrap;rounded=0;" parent="1" vertex="1">
          <mxGeometry x="470" y="350" width="40" height="20" as="geometry" />
        </mxCell>
        <mxCell id="LeojJ_W3fskSIA1dzit3-140" value="M" style="text;html=1;strokeColor=none;fillColor=none;align=center;verticalAlign=middle;whiteSpace=wrap;rounded=0;" parent="1" vertex="1">
          <mxGeometry x="580" y="450" width="40" height="20" as="geometry" />
        </mxCell>
        <mxCell id="LeojJ_W3fskSIA1dzit3-142" value="M" style="text;html=1;strokeColor=none;fillColor=none;align=center;verticalAlign=middle;whiteSpace=wrap;rounded=0;" parent="1" vertex="1">
          <mxGeometry x="630" y="380" width="40" height="20" as="geometry" />
        </mxCell>
        <mxCell id="LeojJ_W3fskSIA1dzit3-143" value="M" style="text;html=1;strokeColor=none;fillColor=none;align=center;verticalAlign=middle;whiteSpace=wrap;rounded=0;" parent="1" vertex="1">
          <mxGeometry x="460" y="780" width="40" height="20" as="geometry" />
        </mxCell>
        <mxCell id="LeojJ_W3fskSIA1dzit3-144" value="M" style="text;html=1;strokeColor=none;fillColor=none;align=center;verticalAlign=middle;whiteSpace=wrap;rounded=0;" parent="1" vertex="1">
          <mxGeometry x="520" y="260" width="40" height="20" as="geometry" />
        </mxCell>
        <mxCell id="LeojJ_W3fskSIA1dzit3-146" value="N" style="text;html=1;strokeColor=none;fillColor=none;align=center;verticalAlign=middle;whiteSpace=wrap;rounded=0;" parent="1" vertex="1">
          <mxGeometry x="850" y="260" width="40" height="20" as="geometry" />
        </mxCell>
        <mxCell id="LeojJ_W3fskSIA1dzit3-148" value="N" style="text;html=1;strokeColor=none;fillColor=none;align=center;verticalAlign=middle;whiteSpace=wrap;rounded=0;" parent="1" vertex="1">
          <mxGeometry x="460" y="660" width="40" height="20" as="geometry" />
        </mxCell>
        <mxCell id="LeojJ_W3fskSIA1dzit3-152" value="M" style="text;html=1;strokeColor=none;fillColor=none;align=center;verticalAlign=middle;whiteSpace=wrap;rounded=0;" parent="1" vertex="1">
          <mxGeometry x="355" y="260" width="40" height="20" as="geometry" />
        </mxCell>
        <mxCell id="LeojJ_W3fskSIA1dzit3-154" value="M" style="text;html=1;strokeColor=none;fillColor=none;align=center;verticalAlign=middle;whiteSpace=wrap;rounded=0;" parent="1" vertex="1">
          <mxGeometry x="715" y="360" width="40" height="20" as="geometry" />
        </mxCell>
        <mxCell id="LeojJ_W3fskSIA1dzit3-156" value="N" style="text;html=1;strokeColor=none;fillColor=none;align=center;verticalAlign=middle;whiteSpace=wrap;rounded=0;" parent="1" vertex="1">
          <mxGeometry x="170" y="260" width="40" height="20" as="geometry" />
        </mxCell>
        <mxCell id="LeojJ_W3fskSIA1dzit3-157" value="1" style="text;html=1;strokeColor=none;fillColor=none;align=center;verticalAlign=middle;whiteSpace=wrap;rounded=0;" parent="1" vertex="1">
          <mxGeometry x="530" y="300" width="40" height="20" as="geometry" />
        </mxCell>
        <mxCell id="LeojJ_W3fskSIA1dzit3-158" style="edgeStyle=orthogonalEdgeStyle;rounded=0;orthogonalLoop=1;jettySize=auto;html=1;exitX=0.5;exitY=1;exitDx=0;exitDy=0;" parent="1" source="LeojJ_W3fskSIA1dzit3-143" target="LeojJ_W3fskSIA1dzit3-143" edge="1">
          <mxGeometry relative="1" as="geometry" />
        </mxCell>
        <mxCell id="LeojJ_W3fskSIA1dzit3-159" value="Email" style="ellipse;whiteSpace=wrap;html=1;align=center;" parent="1" vertex="1">
          <mxGeometry x="-120" y="170" width="100" height="40" as="geometry" />
        </mxCell>
        <mxCell id="LeojJ_W3fskSIA1dzit3-160" value="" style="endArrow=none;html=1;entryX=1;entryY=1;entryDx=0;entryDy=0;exitX=0;exitY=0;exitDx=0;exitDy=0;" parent="1" source="LeojJ_W3fskSIA1dzit3-16" target="LeojJ_W3fskSIA1dzit3-159" edge="1">
          <mxGeometry width="50" height="50" relative="1" as="geometry">
            <mxPoint x="540" y="420" as="sourcePoint" />
            <mxPoint x="590" y="370" as="targetPoint" />
          </mxGeometry>
        </mxCell>
        <mxCell id="LeojJ_W3fskSIA1dzit3-161" value="" style="endArrow=none;html=1;exitX=0.5;exitY=1;exitDx=0;exitDy=0;" parent="1" source="LeojJ_W3fskSIA1dzit3-162" target="LeojJ_W3fskSIA1dzit3-4" edge="1">
          <mxGeometry width="50" height="50" relative="1" as="geometry">
            <mxPoint x="910" y="140" as="sourcePoint" />
            <mxPoint x="590" y="370" as="targetPoint" />
          </mxGeometry>
        </mxCell>
        <mxCell id="LeojJ_W3fskSIA1dzit3-162" value="&lt;u&gt;ID_ator&lt;/u&gt;" style="ellipse;whiteSpace=wrap;html=1;align=center;" parent="1" vertex="1">
          <mxGeometry x="930" y="170" width="100" height="40" as="geometry" />
        </mxCell>
        <mxCell id="LeojJ_W3fskSIA1dzit3-163" value="&lt;u&gt;ID realizador&lt;/u&gt;" style="ellipse;whiteSpace=wrap;html=1;align=center;" parent="1" vertex="1">
          <mxGeometry x="320" y="480" width="100" height="40" as="geometry" />
        </mxCell>
        <mxCell id="LeojJ_W3fskSIA1dzit3-164" value="" style="endArrow=none;html=1;entryX=0.64;entryY=1;entryDx=0;entryDy=0;entryPerimeter=0;exitX=0.25;exitY=0;exitDx=0;exitDy=0;" parent="1" source="LeojJ_W3fskSIA1dzit3-3" target="LeojJ_W3fskSIA1dzit3-163" edge="1">
          <mxGeometry width="50" height="50" relative="1" as="geometry">
            <mxPoint x="540" y="520" as="sourcePoint" />
            <mxPoint x="590" y="470" as="targetPoint" />
          </mxGeometry>
        </mxCell>
        <mxCell id="LeojJ_W3fskSIA1dzit3-165" value="&lt;u&gt;ID&lt;/u&gt;" style="ellipse;whiteSpace=wrap;html=1;align=center;" parent="1" vertex="1">
          <mxGeometry x="270" y="820" width="100" height="40" as="geometry" />
        </mxCell>
        <mxCell id="LeojJ_W3fskSIA1dzit3-166" value="" style="endArrow=none;html=1;entryX=0;entryY=0.5;entryDx=0;entryDy=0;exitX=1;exitY=0.5;exitDx=0;exitDy=0;" parent="1" source="LeojJ_W3fskSIA1dzit3-165" target="LeojJ_W3fskSIA1dzit3-2" edge="1">
          <mxGeometry width="50" height="50" relative="1" as="geometry">
            <mxPoint x="540" y="620" as="sourcePoint" />
            <mxPoint x="590" y="570" as="targetPoint" />
          </mxGeometry>
        </mxCell>
        <mxCell id="LeojJ_W3fskSIA1dzit3-167" value="&lt;u&gt;ID&lt;/u&gt;" style="ellipse;whiteSpace=wrap;html=1;align=center;" parent="1" vertex="1">
          <mxGeometry x="280" y="215" width="100" height="40" as="geometry" />
        </mxCell>
        <mxCell id="LeojJ_W3fskSIA1dzit3-168" value="" style="endArrow=none;html=1;entryX=0.96;entryY=0.675;entryDx=0;entryDy=0;entryPerimeter=0;" parent="1" target="LeojJ_W3fskSIA1dzit3-167" edge="1">
          <mxGeometry width="50" height="50" relative="1" as="geometry">
            <mxPoint x="420" y="260" as="sourcePoint" />
            <mxPoint x="590" y="370" as="targetPoint" />
          </mxGeometry>
        </mxCell>
        <mxCell id="LeojJ_W3fskSIA1dzit3-169" value="" style="endArrow=none;html=1;exitX=0;exitY=1;exitDx=0;exitDy=0;" parent="1" source="LeojJ_W3fskSIA1dzit3-23" edge="1">
          <mxGeometry width="50" height="50" relative="1" as="geometry">
            <mxPoint x="544.6446609406726" y="124.14213562373084" as="sourcePoint" />
            <mxPoint x="489" y="260" as="targetPoint" />
          </mxGeometry>
        </mxCell>
        <mxCell id="LeojJ_W3fskSIA1dzit3-171" value="&lt;u&gt;ID&lt;/u&gt;" style="ellipse;whiteSpace=wrap;html=1;align=center;" parent="1" vertex="1">
          <mxGeometry x="10" y="180" width="100" height="40" as="geometry" />
        </mxCell>
        <mxCell id="LeojJ_W3fskSIA1dzit3-173" value="" style="endArrow=none;html=1;entryX=0.67;entryY=0.95;entryDx=0;entryDy=0;entryPerimeter=0;exitX=0.41;exitY=-0.025;exitDx=0;exitDy=0;exitPerimeter=0;" parent="1" source="LeojJ_W3fskSIA1dzit3-16" target="LeojJ_W3fskSIA1dzit3-171" edge="1">
          <mxGeometry width="50" height="50" relative="1" as="geometry">
            <mxPoint x="540" y="420" as="sourcePoint" />
            <mxPoint x="590" y="370" as="targetPoint" />
          </mxGeometry>
        </mxCell>
        <mxCell id="LeojJ_W3fskSIA1dzit3-20" value="Lucro" style="ellipse;whiteSpace=wrap;html=1;align=center;" parent="1" vertex="1">
          <mxGeometry x="410" y="130" width="100" height="40" as="geometry" />
        </mxCell>
        <mxCell id="LeojJ_W3fskSIA1dzit3-174" value="" style="endArrow=none;html=1;exitX=0.68;exitY=0.975;exitDx=0;exitDy=0;startArrow=none;exitPerimeter=0;" parent="1" source="LeojJ_W3fskSIA1dzit3-19" edge="1">
          <mxGeometry width="50" height="50" relative="1" as="geometry">
            <mxPoint x="517.5031191528055" y="79.97504677755569" as="sourcePoint" />
            <mxPoint x="470" y="260" as="targetPoint" />
          </mxGeometry>
        </mxCell>
        <mxCell id="VHC6Lv-VFxz-tgQs4zdL-1" value="" style="endArrow=none;html=1;entryX=0.5;entryY=1;entryDx=0;entryDy=0;exitX=0.5;exitY=0;exitDx=0;exitDy=0;" parent="1" source="LeojJ_W3fskSIA1dzit3-93" target="LeojJ_W3fskSIA1dzit3-39" edge="1">
          <mxGeometry width="50" height="50" relative="1" as="geometry">
            <mxPoint x="590" y="420" as="sourcePoint" />
            <mxPoint x="640" y="370" as="targetPoint" />
          </mxGeometry>
        </mxCell>
        <mxCell id="VHC6Lv-VFxz-tgQs4zdL-3" value="ID papel" style="ellipse;whiteSpace=wrap;html=1;align=center;fontStyle=4" parent="1" vertex="1">
          <mxGeometry x="655" y="10" width="100" height="40" as="geometry" />
        </mxCell>
        <mxCell id="VHC6Lv-VFxz-tgQs4zdL-4" value="Nacionalidade" style="whiteSpace=wrap;html=1;align=center;" parent="1" vertex="1">
          <mxGeometry x="910" y="600" width="100" height="40" as="geometry" />
        </mxCell>
        <mxCell id="VHC6Lv-VFxz-tgQs4zdL-9" value="Papel" style="whiteSpace=wrap;html=1;align=center;" parent="1" vertex="1">
          <mxGeometry x="690" y="82.5" width="100" height="40" as="geometry" />
        </mxCell>
        <mxCell id="LeojJ_W3fskSIA1dzit3-101" value="Ganha" style="shape=rhombus;perimeter=rhombusPerimeter;whiteSpace=wrap;html=1;align=center;" parent="1" vertex="1">
          <mxGeometry x="530" y="330" width="120" height="60" as="geometry" />
        </mxCell>
        <mxCell id="VHC6Lv-VFxz-tgQs4zdL-15" value="" style="endArrow=none;html=1;exitX=0;exitY=0;exitDx=0;exitDy=0;entryX=0.675;entryY=0.833;entryDx=0;entryDy=0;entryPerimeter=0;" parent="1" source="LeojJ_W3fskSIA1dzit3-93" target="LeojJ_W3fskSIA1dzit3-101" edge="1">
          <mxGeometry width="50" height="50" relative="1" as="geometry">
            <mxPoint x="860" y="560" as="sourcePoint" />
            <mxPoint x="600" y="380" as="targetPoint" />
          </mxGeometry>
        </mxCell>
        <mxCell id="VHC6Lv-VFxz-tgQs4zdL-21" value="" style="endArrow=none;html=1;entryX=0.66;entryY=1.025;entryDx=0;entryDy=0;exitX=0.5;exitY=0;exitDx=0;exitDy=0;entryPerimeter=0;" parent="1" source="VHC6Lv-VFxz-tgQs4zdL-9" target="VHC6Lv-VFxz-tgQs4zdL-3" edge="1">
          <mxGeometry width="50" height="50" relative="1" as="geometry">
            <mxPoint x="550" y="420" as="sourcePoint" />
            <mxPoint x="600" y="370" as="targetPoint" />
          </mxGeometry>
        </mxCell>
        <mxCell id="VHC6Lv-VFxz-tgQs4zdL-22" value="ID nacionlidade" style="ellipse;whiteSpace=wrap;html=1;align=center;fontStyle=4" parent="1" vertex="1">
          <mxGeometry x="1090" y="650" width="100" height="40" as="geometry" />
        </mxCell>
        <mxCell id="VHC6Lv-VFxz-tgQs4zdL-23" value="País" style="ellipse;whiteSpace=wrap;html=1;align=center;" parent="1" vertex="1">
          <mxGeometry x="1100" y="570" width="100" height="40" as="geometry" />
        </mxCell>
        <mxCell id="VHC6Lv-VFxz-tgQs4zdL-24" value="" style="endArrow=none;html=1;entryX=1;entryY=0.5;entryDx=0;entryDy=0;exitX=0;exitY=0;exitDx=0;exitDy=0;" parent="1" source="VHC6Lv-VFxz-tgQs4zdL-23" target="VHC6Lv-VFxz-tgQs4zdL-4" edge="1">
          <mxGeometry width="50" height="50" relative="1" as="geometry">
            <mxPoint x="550" y="620" as="sourcePoint" />
            <mxPoint x="600" y="570" as="targetPoint" />
          </mxGeometry>
        </mxCell>
        <mxCell id="VHC6Lv-VFxz-tgQs4zdL-25" value="" style="endArrow=none;html=1;entryX=1;entryY=0.75;entryDx=0;entryDy=0;" parent="1" target="VHC6Lv-VFxz-tgQs4zdL-4" edge="1">
          <mxGeometry width="50" height="50" relative="1" as="geometry">
            <mxPoint x="1100" y="660" as="sourcePoint" />
            <mxPoint x="600" y="570" as="targetPoint" />
          </mxGeometry>
        </mxCell>
        <mxCell id="VHC6Lv-VFxz-tgQs4zdL-26" value="" style="endArrow=none;html=1;exitX=0.75;exitY=1;exitDx=0;exitDy=0;" parent="1" source="LeojJ_W3fskSIA1dzit3-4" target="VHC6Lv-VFxz-tgQs4zdL-27" edge="1">
          <mxGeometry width="50" height="50" relative="1" as="geometry">
            <mxPoint x="550" y="420" as="sourcePoint" />
            <mxPoint x="600" y="370" as="targetPoint" />
          </mxGeometry>
        </mxCell>
        <mxCell id="VHC6Lv-VFxz-tgQs4zdL-27" value="Tipo de ator" style="ellipse;whiteSpace=wrap;html=1;align=center;" parent="1" vertex="1">
          <mxGeometry x="1010" y="360" width="100" height="40" as="geometry" />
        </mxCell>
        <mxCell id="VHC6Lv-VFxz-tgQs4zdL-28" value="" style="endArrow=none;html=1;exitX=0;exitY=1;exitDx=0;exitDy=0;entryX=0.75;entryY=0;entryDx=0;entryDy=0;" parent="1" source="VHC6Lv-VFxz-tgQs4zdL-29" target="VHC6Lv-VFxz-tgQs4zdL-9" edge="1">
          <mxGeometry width="50" height="50" relative="1" as="geometry">
            <mxPoint x="830" y="60" as="sourcePoint" />
            <mxPoint x="780" y="84" as="targetPoint" />
          </mxGeometry>
        </mxCell>
        <mxCell id="VHC6Lv-VFxz-tgQs4zdL-29" value="Tipo de papel" style="ellipse;whiteSpace=wrap;html=1;align=center;" parent="1" vertex="1">
          <mxGeometry x="780" y="10" width="100" height="40" as="geometry" />
        </mxCell>
        <mxCell id="VHC6Lv-VFxz-tgQs4zdL-36" value="" style="endArrow=none;html=1;entryX=0.5;entryY=1;entryDx=0;entryDy=0;" parent="1" target="LeojJ_W3fskSIA1dzit3-16" edge="1">
          <mxGeometry width="50" height="50" relative="1" as="geometry">
            <mxPoint x="950" y="639" as="sourcePoint" />
            <mxPoint x="600" y="500" as="targetPoint" />
            <Array as="points">
              <mxPoint x="950" y="990" />
              <mxPoint x="110" y="990" />
            </Array>
          </mxGeometry>
        </mxCell>
        <mxCell id="VHC6Lv-VFxz-tgQs4zdL-37" value="" style="endArrow=none;html=1;entryX=1;entryY=0.5;entryDx=0;entryDy=0;exitX=0;exitY=0.5;exitDx=0;exitDy=0;" parent="1" source="VHC6Lv-VFxz-tgQs4zdL-4" target="LeojJ_W3fskSIA1dzit3-3" edge="1">
          <mxGeometry width="50" height="50" relative="1" as="geometry">
            <mxPoint x="550" y="450" as="sourcePoint" />
            <mxPoint x="600" y="400" as="targetPoint" />
          </mxGeometry>
        </mxCell>
        <mxCell id="VHC6Lv-VFxz-tgQs4zdL-38" value="" style="endArrow=none;html=1;entryX=0.5;entryY=1;entryDx=0;entryDy=0;exitX=0.43;exitY=-0.025;exitDx=0;exitDy=0;exitPerimeter=0;" parent="1" source="VHC6Lv-VFxz-tgQs4zdL-4" target="LeojJ_W3fskSIA1dzit3-4" edge="1">
          <mxGeometry width="50" height="50" relative="1" as="geometry">
            <mxPoint x="550" y="450" as="sourcePoint" />
            <mxPoint x="600" y="400" as="targetPoint" />
          </mxGeometry>
        </mxCell>
        <mxCell id="VHC6Lv-VFxz-tgQs4zdL-39" value="" style="endArrow=none;html=1;exitX=1;exitY=0.5;exitDx=0;exitDy=0;" parent="1" source="VHC6Lv-VFxz-tgQs4zdL-9" edge="1">
          <mxGeometry width="50" height="50" relative="1" as="geometry">
            <mxPoint x="550" y="350" as="sourcePoint" />
            <mxPoint x="919" y="258" as="targetPoint" />
          </mxGeometry>
        </mxCell>
        <mxCell id="VHC6Lv-VFxz-tgQs4zdL-40" value="" style="endArrow=none;html=1;entryX=0;entryY=0;entryDx=0;entryDy=0;exitX=0;exitY=0.75;exitDx=0;exitDy=0;" parent="1" source="VHC6Lv-VFxz-tgQs4zdL-9" target="LeojJ_W3fskSIA1dzit3-144" edge="1">
          <mxGeometry width="50" height="50" relative="1" as="geometry">
            <mxPoint x="550" y="350" as="sourcePoint" />
            <mxPoint x="600" y="300" as="targetPoint" />
          </mxGeometry>
        </mxCell>
        <mxCell id="VHC6Lv-VFxz-tgQs4zdL-41" value="Possui" style="shape=rhombus;perimeter=rhombusPerimeter;whiteSpace=wrap;html=1;align=center;" parent="1" vertex="1">
          <mxGeometry x="790" y="142.5" width="120" height="60" as="geometry" />
        </mxCell>
        <mxCell id="VHC6Lv-VFxz-tgQs4zdL-42" value="Relationship" style="shape=rhombus;perimeter=rhombusPerimeter;whiteSpace=wrap;html=1;align=center;" parent="1" vertex="1">
          <mxGeometry x="570" y="140" width="120" height="60" as="geometry" />
        </mxCell>
        <mxCell id="VHC6Lv-VFxz-tgQs4zdL-46" value="Possui" style="shape=rhombus;perimeter=rhombusPerimeter;whiteSpace=wrap;html=1;align=center;" parent="1" vertex="1">
          <mxGeometry x="890" y="820" width="120" height="60" as="geometry" />
        </mxCell>
        <mxCell id="VHC6Lv-VFxz-tgQs4zdL-47" value="Possui" style="shape=rhombus;perimeter=rhombusPerimeter;whiteSpace=wrap;html=1;align=center;" parent="1" vertex="1">
          <mxGeometry x="890" y="410" width="120" height="60" as="geometry" />
        </mxCell>
        <mxCell id="VHC6Lv-VFxz-tgQs4zdL-48" value="Possui" style="shape=rhombus;perimeter=rhombusPerimeter;whiteSpace=wrap;html=1;align=center;" parent="1" vertex="1">
          <mxGeometry x="645" y="590" width="120" height="60" as="geometry" />
        </mxCell>
        <mxCell id="LeojJ_W3fskSIA1dzit3-19" value="Estúdio de produção" style="ellipse;whiteSpace=wrap;html=1;align=center;" parent="1" vertex="1">
          <mxGeometry x="375" y="175" width="100" height="40" as="geometry" />
        </mxCell>
        <mxCell id="VHC6Lv-VFxz-tgQs4zdL-49" value="" style="endArrow=none;html=1;exitX=0.5;exitY=1;exitDx=0;exitDy=0;" parent="1" source="LeojJ_W3fskSIA1dzit3-24" target="LeojJ_W3fskSIA1dzit3-19" edge="1">
          <mxGeometry width="50" height="50" relative="1" as="geometry">
            <mxPoint x="390" y="132.5" as="sourcePoint" />
            <mxPoint x="470" y="260" as="targetPoint" />
          </mxGeometry>
        </mxCell>
      </root>
    </mxGraphModel>
  </diagram>
</mxfile>
